<svg width="132" height="124" viewBox="0 0 132 124" fill="none" xmlns="http://www.w3.org/2000/svg">
<path d="M31.6562 118.567C36.7084 120.601 42.1896 121.807 47.9447 122.008C55.7335 122.28 63.1403 120.67 69.7616 117.611C61.8214 114.492 54.6303 109.929 48.4929 104.257C44.5147 110.627 38.6305 115.658 31.6562 118.567Z" fill="#FF9100"/>
<path d="M48.4943 104.259C34.4847 91.302 25.9858 72.5484 26.7041 51.979C26.7274 51.311 26.7626 50.6435 26.8039 49.9762C24.2948 49.3273 21.6753 48.9313 18.9796 48.8371C15.121 48.7024 11.3843 49.181 7.85647 50.1744C4.11667 56.7255 1.85982 64.242 1.57867 72.2932C0.85308 93.0713 13.4273 111.227 31.6575 118.569C38.6319 115.66 44.5158 110.635 48.4943 104.259Z" fill="#FFC400"/>
<path d="M48.4937 104.258C51.7509 99.0459 53.7258 92.9348 53.9557 86.3506C54.5605 69.0316 42.9175 54.133 26.8033 49.9757C26.762 50.643 26.7268 51.3105 26.7035 51.9785C25.9852 72.5479 34.484 91.3015 48.4937 104.258Z" fill="#FF9100"/>
<path d="M52.1523 1.29291C42.9747 8.64534 35.7275 18.3402 31.3428 29.5084C28.8325 35.9054 27.255 42.7768 26.7944 49.9798C42.9087 54.1372 54.5517 69.0358 53.9469 86.3548C53.7169 92.939 51.7363 99.044 48.4849 104.263C54.622 109.941 61.8134 114.497 69.7535 117.616C85.691 110.249 96.9986 94.3967 97.6534 75.6462C98.0777 63.4978 93.4101 52.6704 86.8147 43.5311C79.8495 33.8654 52.1523 1.29291 52.1523 1.29291Z" fill="#DD2C00"/>
<g filter="url(#filter0_d_47_3679)">
<circle cx="100" cy="90.4678" r="30" fill="white"/>
<path fill-rule="evenodd" clip-rule="evenodd" d="M100.346 100.392L93.2043 93.2501C94.4262 91.0994 94.1202 88.3161 92.2863 86.4821C90.0851 84.2809 86.5162 84.2809 84.315 86.4821C82.1138 88.6833 82.1138 92.2522 84.315 94.4534C86.1489 96.2874 88.9322 96.5934 91.083 95.3714L98.2246 102.513C100.364 104.652 103.164 104.668 104.984 103.175C106.814 101.673 107.291 98.9447 105.52 96.5062L96.8401 82.8525L96.8089 82.8102C95.905 81.5866 96.28 80.6186 96.8639 80.1369C97.4644 79.6415 98.5553 79.4437 99.6553 80.5438L104.79 85.6785C105.376 86.2642 106.326 86.2642 106.911 85.6785C107.497 85.0927 107.497 84.1429 106.911 83.5571L101.777 78.4224C99.6119 76.2577 96.7786 76.3182 94.9549 77.8227C93.1256 79.3317 92.5718 82.0809 94.363 84.5478L103.043 98.2015L103.074 98.2438C103.999 99.4959 103.605 100.425 103.081 100.855C102.536 101.302 101.472 101.517 100.346 100.392ZM86.4363 92.3321C87.4659 93.3618 89.1353 93.3618 90.165 92.3321C91.1946 91.3025 91.1946 89.6331 90.165 88.6034C89.1353 87.5738 87.4659 87.5738 86.4363 88.6034C85.4067 89.6331 85.4067 91.3025 86.4363 92.3321Z" fill="#1F1F1F"/>
<path d="M107.801 86.5678C105.647 88.7217 105.647 92.2139 107.801 94.3678C109.955 96.5217 113.447 96.5217 115.601 94.3678C117.755 92.2139 117.755 88.7217 115.601 86.5678C113.447 84.4139 109.955 84.4139 107.801 86.5678Z" fill="#1F1F1F"/>
</g>
<defs>
<filter id="filter0_d_47_3679" x="68" y="59.1382" width="64" height="64" filterUnits="userSpaceOnUse" color-interpolation-filters="sRGB">
<feFlood flood-opacity="0" result="BackgroundImageFix"/>
<feColorMatrix in="SourceAlpha" type="matrix" values="0 0 0 0 0 0 0 0 0 0 0 0 0 0 0 0 0 0 127 0" result="hardAlpha"/>
<feOffset dy="0.670408"/>
<feGaussianBlur stdDeviation="1"/>
<feComposite in2="hardAlpha" operator="out"/>
<feColorMatrix type="matrix" values="0 0 0 0 0 0 0 0 0 0 0 0 0 0 0 0 0 0 0.3 0"/>
<feBlend mode="normal" in2="BackgroundImageFix" result="effect1_dropShadow_47_3679"/>
<feBlend mode="normal" in="SourceGraphic" in2="effect1_dropShadow_47_3679" result="shape"/>
</filter>
</defs>
</svg>
