<?xml version="1.0" encoding="UTF-8"?>
<svg id="Layer_2" data-name="Layer 2" xmlns="http://www.w3.org/2000/svg" xmlns:xlink="http://www.w3.org/1999/xlink" viewBox="0 0 1724 665">
  <defs>
    <style>
      .cls-1 {
        fill: url(#New_Gradient_Swatch_1);
      }

      .cls-1, .cls-2 {
        stroke-width: 0px;
      }

      .cls-2 {
        fill: #fff;
      }
    </style>
    <linearGradient id="New_Gradient_Swatch_1" data-name="New Gradient Swatch 1" x1="74.24" y1="-142.8" x2="1637.57" y2="800.44" gradientTransform="translate(529.5 1194.5) rotate(-90)" gradientUnits="userSpaceOnUse">
      <stop offset="0" stop-color="#4226a7"/>
      <stop offset="1" stop-color="#d2479a"/>
    </linearGradient>
  </defs>
  <g id="Layer_1-2" data-name="Layer 1">
    <g>
      <rect class="cls-1" x="529.5" y="-529.5" width="665" height="1724" transform="translate(1194.5 -529.5) rotate(90)"/>
      <g>
        <polygon class="cls-2" points="976.12 283.83 818.15 283.83 801.39 321.3 902.48 321.3 795.64 470.89 796.62 472.53 957.71 472.53 974.48 435.05 870.92 435.05 977.11 285.47 976.12 283.83"/>
        <path class="cls-2" d="M1081.48,274.29c-58.85,0-102.24,44.05-102.24,103.88s43.72,104.21,111.44,104.21c43.07,0,70.03-15.78,90.73-34.85l-26.63-27.94c-14.46,14.46-34.85,24.66-64.11,24.66-38.46,0-60.16-21.04-64.1-54.9h156.81v-11.18c0-59.83-43.39-103.88-101.91-103.88ZM1028.55,355.17c6.57-26.63,25.31-43.07,52.93-43.07s46.02,16.44,52.6,43.07h-105.53Z"/>
        <path class="cls-2" d="M1326.41,277.58c-31.23,0-57.86,12.16-75.94,31.89v-25.64h-42.08v261.02h44.38v-96.32c18.08,18.41,44.05,30.24,73.64,30.24,54.57,0,95.99-45.7,95.99-101.25s-41.42-99.94-95.99-99.94ZM1314.24,439.98c-35.84,0-62.79-28.6-62.79-61.8s26.96-61.8,62.79-61.8,61.47,28.93,61.47,62.14-25.64,61.47-61.47,61.47Z"/>
        <path class="cls-2" d="M722.11,320.84h-19.21l6.72-142.08-27.73-.85-5.19,92.35c-111.62-6.07-223.49-6.08-335.12-.03l-3.25-121.67-27.73.85,4.68,171.43h-19.64l-2.63,2.75c-2.91,30.39-1.23,61.2,4.22,91.57h20.28l.34,2.38c1.26,36.23,30.15,64.95,67.24,64.95s84.03-1.73,123.84-1.73,87.21,1.73,123.52,1.73,65.91-28.64,67.24-64.82l.31-2.52h20.65c5.45-30.32,7.13-61.07,4.24-91.41l-2.78-2.9ZM428.52,432.4c-32.34,0-56.67-25.81-56.67-55.78s24.33-55.78,56.67-55.78,55.48,26.11,55.48,56.08-23.14,55.48-55.48,55.48ZM590.55,432.4c-32.34,0-56.67-25.81-56.67-55.78s24.33-55.78,56.67-55.78,55.48,26.11,55.48,56.08-23.14,55.48-55.48,55.48Z"/>
        <polygon class="cls-2" points="500.94 162.1 466.51 213.75 466.76 214.69 639.75 192.28 649.24 172 505.72 188.6 512.06 179.1 512.04 179.1 550.79 121.07 550.54 120.15 380.88 141.87 371.86 161.86 513.25 143.77 500.94 162.1"/>
        <path class="cls-2" d="M428.27,347.67c-16.24,0-29.46,12.99-29.46,28.95s13.22,28.95,29.46,28.95,28.78-12.64,28.78-28.78-12.64-29.12-28.78-29.12Z"/>
        <path class="cls-2" d="M590.3,347.67c-16.24,0-29.46,12.99-29.46,28.95s13.22,28.95,29.46,28.95,28.78-12.64,28.78-28.78-12.64-29.12-28.78-29.12Z"/>
      </g>
    </g>
  </g>
</svg>